<svg xmlns="http://www.w3.org/2000/svg" viewBox="0 0 195.6 195.6">
<!-- SVG created with Arrow, by QuiverAI (https://quiver.ai) -->
  <style type="text/css">.cls-0 {fill:#F7F3E8;}
.cls-1 {fill:#1E1E1E;}
.cls-2 {fill:none;stroke:#020202;stroke-width:3.6449;stroke-miterlimit:10;}
.cls-3 {fill:#7B7979;}
.cls-4 {fill:none;stroke:#020202;stroke-width:0.9592;stroke-linecap:round;stroke-linejoin:round;stroke-miterlimit:10;}
.cls-5 {fill:#333130;}
.cls-6 {fill:#3588C1;stroke:#020202;stroke-width:0.9445;stroke-linecap:round;stroke-linejoin:round;stroke-miterlimit:10;}
.cls-7 {fill:#808080;stroke:#020202;stroke-width:0.9445;stroke-linecap:round;stroke-linejoin:round;stroke-miterlimit:10;}
.cls-8 {fill:#333130;stroke:#020202;stroke-width:0.9445;stroke-linecap:round;stroke-linejoin:round;stroke-miterlimit:10;}
.cls-9 {fill:#DEE8F1;stroke:#020202;stroke-width:0.9445;stroke-linecap:round;stroke-linejoin:round;stroke-miterlimit:10;}
.cls-10 {fill:#4E4D4D;stroke:#020202;stroke-width:0.9445;stroke-linecap:round;stroke-linejoin:round;stroke-miterlimit:10;}
.cls-11 {fill:#474647;stroke:#020202;stroke-width:0.9445;stroke-linecap:round;stroke-linejoin:round;stroke-miterlimit:10;}
.cls-12 {fill:#474647;stroke:#020202;stroke-width:0.7421;stroke-linecap:round;stroke-linejoin:round;stroke-miterlimit:10;}
.cls-13 {fill:#3588C1;stroke:#020202;stroke-width:0.7421;stroke-linecap:round;stroke-linejoin:round;stroke-miterlimit:10;}
.cls-14 {fill:none;stroke:#020202;stroke-width:0.4638;stroke-linecap:round;stroke-linejoin:round;stroke-miterlimit:10;}
.cls-15 {fill:#9C9B9B;stroke:#020202;stroke-width:0.9445;stroke-linecap:round;stroke-linejoin:round;stroke-miterlimit:10;}
.cls-16 {fill:#DCD7D0;}
.cls-17 {fill:#222A4E;}
.cls-18 {fill:#B1272D;}
.cls-19 {fill:#7F7E79;}
.cls-20 {fill:#A5A39F;}
.cls-21 {fill:#D69027;stroke:#161412;stroke-width:0.5667;stroke-linecap:round;stroke-linejoin:round;stroke-miterlimit:10;}
.cls-22 {fill:#FFFFFF;}
.cls-23 {fill:#D6D2CC;}
.cls-24 {fill:#222D53;}
.cls-25 {fill:#A7A6A3;}
.cls-26 {fill:#BA282E;}
.cls-27 {fill:#81807C;}
.cls-28 {fill:#A4A39F;}
.cls-29 {fill:#D8D4CC;}
.cls-30 {fill:#222D53;}
.cls-31 {fill:#A5A49F;}
.cls-32 {fill:none;stroke:#020202;stroke-width:0.9445;stroke-linecap:round;stroke-linejoin:round;stroke-miterlimit:10;}
.cls-33 {fill:#3588C1;stroke:#020202;stroke-width:0.371;stroke-linecap:round;stroke-linejoin:round;stroke-miterlimit:10;}
.cls-34 {fill:#D9D6CC;}
.cls-35 {fill:none;stroke:#020202;stroke-width:0.4723;stroke-linecap:round;stroke-linejoin:round;stroke-miterlimit:10;}
.cls-36 {fill:#FFFFFF;}</style>
  <path class="cls-0" d="m193.8 97.8c0-47.3-39.7-95.7-95.7-95.8-52.2-0.1-94.7 39.4-96.2 90.7-1.6 54.4 39.7 101 96.1 101.4 52.6 0.3 95.8-42.6 95.8-96.3z"/>
  <path class="cls-1" d="m9.9 137.5c12.5 27.8 40.8 56.1 87.9 56.5 42.2 0.4 71.5-21.5 87.6-56.5h-175.5z"/>
  <path class="cls-2" d="m193.8 97.8c0-45.9-38.6-95.8-95.8-95.9-51.5-0.1-96.4 42.2-96.2 96 0.2 47.7 35.3 95.8 96.1 96.2 51.9 0.3 95.9-39.5 95.9-96.3z"/>
  <path class="cls-3" d="m68.6 61.1c0.4-2.5 4.1-4.4 8.2-4.4h46.8c4.9 0 9.2 2.2 10 4.4l-0.5 0.4-64.3 0.3-0.2-0.7z"/>
  <path class="cls-4" d="m68.6 61.1c0.4-2.5 4.1-4.4 8.2-4.4h46.8c4.1 0 8 1.7 9.5 4"/>
  <path class="cls-7" d="m9.8 61h121.8c8.6 0 18.6-0.1 30.3 2l-0.7 5.1h-154l2.6-7.1z"/>
  <path class="cls-5" d="m168.7 64.9-0.6 8h-1.7l-1.5-9.9c2.8 0 3.8 0.3 3.8 1.9z"/>
  <path class="cls-8" d="m168.4 64.9c0-1.6-1.8-1.9-6.3-1.7h-1.2c2.2 0.3 3.1 0.5 4.3 3.1 1.5 4.1 8.4 23.8 8.6 46l0.7 1.4-0.1 9.4-164.8 7.2c-3.1-3.5-7.1-18.9-7.5-30.7-0.3-10.5 1.9-21.8 5.2-31.2h153.2c2.3 0 3.9 1.1 4.8 4.2 1.7 5.9 5.4 26.8 5.8 36.3h2.5"/>
  <path class="cls-6" d="m160.9 63.2c2.1 0.4 3.5 0.4 4.4 3.1 1.9 5.4 6 21.9 8.1 43.6l0.2 2.4 0.9 1.4v9.7l-11 6.9h-67.4-87.5c-2.3-4.3-4.8-15.1-5.3-21.3l18.5-0.1h70.3c3.8 0 4.8-2.7 10.4-2.9 3.9-0.2 26.8 2.1 33.6 3.4 5.5 1 5.8 3.6 9.5 3.8 1.9 0.1 15.6-1.5 21.9-2 1.8-0.2 2.4-0.9 2.9-2.5 0.5-2.1-2.1-25.1-5.2-36.1-0.8-2.7-2.3-4.2-4.3-4.4v-5z"/>
  <path class="cls-9" d="m166.6 78.9-1.3-0.1c-0.8 0-1.1 0.2-1.1 0.8v27.9c0 0.7 0.4 1 1.1 1h4.6c1-1.5-2.5-25.2-3.3-29.6z"/>
  <path class="cls-8" d="m168.1 73.1h8.3c1.5 0 3.9 1 4.6 3.6 0.7 2.5 0.5 5.9 0.5 7.9-0.1 1.7-2.6 2.2-2.9 0.8-0.5-1.8-1-6.5-1.1-7.5 0-0.8-2.1-2.7-2.1-2.9h-6.9l-0.4-1.9z"/>
  <path class="cls-9" d="m16.4 79.3h-11.3c-1.3 6.4-2.1 13.2-2.1 19.3 0 2.3 0.2 4.5 0.3 6.1h13.1c0.6 0 1-0.4 1-1.1v-23.3c0-0.5-0.4-1-1-1z"/>
  <path class="cls-9" d="m157.6 83.1h-22c-0.7 0-1.3 0.5-1.3 1.3v22.8c0 0.7 0.6 1.4 1.3 1.4h22c0.7 0 1.3-0.6 1.3-1.4v-22.8c0-0.7-0.6-1.3-1.3-1.3z"/>
  <path class="cls-9" d="m86.1 79.3h-30.9c-0.6 0-1.1 0.5-1.1 1.1v23.3c0 0.6 0.5 1 1.1 1h30.8c0.6 0 1.1-0.4 1.1-1.1v-23.3c0-0.5-0.5-1-1-1z"/>
  <path class="cls-9" d="m126.4 79.3h-33.4c-0.5 0-1 0.4-1 1v23.4c0 0.6 0.5 1 1 1h33.4c0.5 0 1-0.4 1-1v-23.4c0-0.6-0.5-1-1-1z"/>
  <path class="cls-10" d="m21.9 78v52.1h28.4v-52.1h-28.4z"/>
  <path class="cls-11" d="m36.3 78.3v49.6h14v-49.6h-14z"/>
  <path class="cls-9" d="m38 80.2v43.4h10.3v-43.4h-10.3z"/>
  <path class="cls-9" d="m23.9 80.2v43.4h10.3v-43.4h-10.3z"/>
  <path class="cls-12" d="m96.1 130.3c0-5.7-0.8-17.6 11.9-17.6 13.3 0 14.7 7.6 14.7 17.6h-26.6z"/>
  <path class="cls-11" d="m120.7 125.6c0-5.7-4.8-11.2-11.7-11.2-6.5 0-11.3 4.7-11.3 10.7 0 5.8 4.5 12.4 11.7 12.4 5.8 0 11.3-4.3 11.3-11.9z"/>
  <path class="cls-13" d="m116.4 125.3c0-3.5-2.9-6.8-7.1-6.8-3.6 0-7.2 2.8-7.2 6.8 0 3.4 2.8 7.4 7.2 7.4 3.5 0 7.1-2.4 7.1-7.4z"/>
  <path class="cls-13" d="m114.1 125.3c0-2.5-2.1-4.6-4.8-4.6-2.4 0-4.9 1.9-4.9 4.6 0 2.4 1.9 4.8 4.9 4.8 2.3 0 4.8-1.5 4.8-4.8z"/>
  <path class="cls-14" d="m89.5 68.4v61.7"/>
  <path class="cls-14" d="m131.2 68.7v61.4"/>
  <path class="cls-15" d="m163.3 119.3 0.2 11 2.9-0.3 7-1.4c0.8-0.2 1.1-4.6 1.1-5-1.3 0-2.1 0.8-2.9-0.2-1.2-1.5-1.2-2.8-4.1-3.5l-4.2-0.6z"/>
  <path class="cls-14" d="m166.9 110.9v8.7"/>
  <path class="cls-15" d="m169 120.6c-0.8-0.5 0.1-3 2.2-2.7 1 0.1 2.5 1.7 2.5 2.7v2.8c-1.3 0.3-1.2 0.7-2.1 0-0.7-0.7-1.2-2-2.6-2.8z"/>
  <path class="cls-32" d="m134.3 104h24.4"/>
  <path class="cls-14" d="m147.2 83.1v21"/>
  <path class="cls-21" d="m18.5 124.3h-2.1c-0.3 0-0.4 0.2-0.4 0.4v0.5c0 0.2 0.1 0.4 0.4 0.4h2.1c0.2 0 0.4-0.2 0.4-0.4v-0.5c0-0.2-0.3-0.4-0.4-0.4z"/>
  <path class="cls-21" d="m61.4 124.3h-2.4c-0.2 0-0.4 0.2-0.4 0.4v0.5c0 0.2 0.1 0.5 0.4 0.5h2.4c0.2 0 0.4-0.2 0.4-0.5v-0.5c0-0.2-0.2-0.4-0.4-0.4z"/>
  <path class="cls-21" d="m127.9 124.3h-2.2c-0.2 0-0.4 0.2-0.4 0.4v0.5c0 0.3 0.2 0.5 0.4 0.5h2.2c0.2 0 0.5-0.2 0.5-0.5v-0.4c0-0.3-0.2-0.5-0.5-0.5z"/>
  <path class="cls-22" d="m135.8 71.6"/>
  <path class="cls-22" d="m136.1 72 0.2 0.4 0.2-0.1 0.1 0.2 0.3-0.2 0.1 0.2 0.2-0.2 0.2 0.2 0.2-0.2 0.2 0.2 0.2-0.2 0.2 0.2 0.2-0.2 0.2 0.2 0.2-0.5-0.2 0.1v-0.2l-0.2 0.1-0.1-0.2-0.1 0.2-0.2-0.1v0.2l-0.2-0.1-0.1 0.2-0.2-0.2-0.2 0.2-0.1-0.2-0.2 0.1-0.1-0.2-0.1 0.2-0.2-0.2v0.2l-0.2-0.1-0.1 0.2-0.2-0.2z"/>
  <path class="cls-22" d="m136.4 72.7v2.3c0 0.5 0.5 0.9 1 0.9s1.1-0.2 1.1-0.9v-2.4l-2.1 0.1zm0.6 0.4 0.1-0.1v0.1h0.1l0.1-0.1v0.1h0.1v0.1l-0.1 0.1 0.1 0.1-0.1 0.1h0.1l-0.1 0.1h-0.2l-0.1-0.1h0.1l-0.1-0.1h0.1l-0.1-0.1 0.1-0.1-0.1-0.1zm1.2 1.7h-0.3c-0.1-0.1 0-0.3-0.1-0.5-0.1-0.1-0.2-0.1-0.3-0.1v0.6h-0.4v-1.1c0.3-0.1 0.8-0.2 0.9 0.2 0.1 0.2-0.1 0.3-0.2 0.3 0.5 0 0.2 0.4 0.4 0.6zm-1.6 0.3v-2.3h1.6v2.3h-1.6z"/>
  <polygon class="cls-22" points="146.1 72.2 147.1 72.2 147.1 72.5 146.4 72.5 146.4 72.7 147 72.7 147 73 146.4 73 146.4 73.3 147.1 73.3 147.1 73.6 146.1 73.6"/>
  <polygon class="cls-22" points="147.6 72.2 148 72.2 148.3 72.7 148.6 72.2 149 72.2 149 73.6 148.6 73.6 148.6 72.7 148.3 73.3 148.3 73.3 147.9 72.7 147.9 73.6 147.6 73.6"/>
  <polygon class="cls-22" points="149.8 72.5 149.4 72.5 149.4 72.2 150.6 72.2 150.6 72.5 150.2 72.5 150.2 73.6 149.8 73.6"/>
  <polygon class="cls-22" points="141.3 74.2 141.5 74.2 142 75 142.5 74.2 142.7 74.2 142.7 75.6 142.5 75.6 142.5 74.6 142 75.3 141.5 74.6 141.5 75.6 141.3 75.6"/>
  <path class="cls-22" d="m143.8 74.2-0.6 1.4h0.2l0.2-0.3h0.7l0.1 0.3h0.3l-0.6-1.4h-0.3zm0.1 0.3 0.3 0.6h-0.5l0.2-0.6z"/>
  <path class="cls-22" d="m145.6 74.4v1h0.3c0.3 0 0.5-0.2 0.5-0.5s-0.2-0.5-0.5-0.5h-0.3zm-0.3-0.2h0.6c0.4 0 0.7 0.3 0.7 0.7s-0.3 0.7-0.7 0.7h-0.6v-1.4z"/>
  <path class="cls-22" d="m147.7 74.9c0.2 0 0.3-0.1 0.3-0.3s-0.1-0.2-0.3-0.2h-0.4v0.5h0.4zm-0.6-0.7h0.6c0.2 0 0.3 0.1 0.4 0.2s0.1 0.1 0.1 0.2c0 0.3-0.1 0.4-0.3 0.4l0.4 0.6h-0.3l-0.3-0.5h-0.4v0.5h-0.2v-1.4z"/>
  <polygon class="cls-22" points="148.7 74.2 148.9 74.2 148.9 75.6 148.7 75.6"/>
  <path class="cls-22" d="m149.7 74.4v1h0.3c0.3 0 0.6-0.2 0.6-0.5s-0.2-0.5-0.6-0.5h-0.3zm-0.2-0.2h0.5c0.5 0 0.8 0.3 0.8 0.7s-0.3 0.7-0.8 0.7h-0.5v-1.4z"/>
  <polygon class="cls-22" points="154.7 71.6 156.2 73.7 154.7 75.8 155.7 75.8 156.9 74.1 157 73.9 156.9 73.7 155.6 71.6"/>
  <path class="cls-22" d="m154.1 72.1c-0.6 0-1.2 0.4-1.5 0.9h1.9c0.2 0 0.4 0.2 0.4 0.4s-0.2 0.4-0.4 0.4h-2.6v0.6h2.2c0.6 0 1.1-0.5 1.1-1.1 0.1-0.7-0.4-1.2-1.1-1.2z"/>
  <path class="cls-22" d="m152.6 74.4c0.3 0.6 0.9 1 1.5 1 0.3 0 0.6-0.1 0.9-0.3l-0.4-0.6c-0.1 0-0.3 0.1-0.5 0.1l-1.5-0.2z"/>
  <rect class="cls-22" x="139.6" y="71.7" width=".1" height="4.2"/>
  <path class="cls-22" d="m150 123.2c-0.8 1.9-3.3 3.2-6.7 3.2-2.4-0.1-5.4-1.7-6-3.3l11.7 0.1z"/>
  <path class="cls-22" d="m150 114.9c-0.7-0.9-1.7-2-5.1-2.8-2.5-0.2-6.7 0.6-7.5 2.6-0.2 0.5 0.1 0.5 0.5 0.5h5.9c1.8 0 2.7 0.7 2.8 1.7 0 0.4-0.1 0.5-0.6 0.5h-11.4c-0.5 0-0.7 0.4-0.7 1v1.5c0 0.4 0.2 0.8 0.6 0.8h12.4c2.4 0 3.5-1.5 3.5-3 0.1-1 0-2-0.4-2.8z"/>
  <path class="cls-22" d="m154.3 112.7-3.9 0.3 3.3 5.2c0.4 0.5 0.4 1-0.1 1.7l-5.1 7.2c-0.4 0.6 0.1 0.8 0.5 0.8h3c0.5 0 0.7-0.2 1.1-0.7l4.8-7.3c0.3-0.5 0.4-1 0-1.7l-3.6-5.5z"/>
  <path class="cls-33" d="m163.3 67.3"/>
  <path class="cls-34" d="m10.8 82.1h3.6v20.9h-3.5l-0.1-20.9z"/>
  <path class="cls-17" d="m5.8 90h3.2v13h-3.2v-13z"/>
  <path class="cls-26" d="m56.7 95.4h3.9v7.5h-3.9v-7.5z"/>
  <path class="cls-24" d="m62.6 83.9h4v19h-4v-19z"/>
  <path class="cls-27" d="m68.5 87.3h3.9v15.7h-3.9v-15.7z"/>
  <path class="cls-28" d="m74.1 98.1h3.9v4.9h-3.9v-4.9z"/>
  <path class="cls-29" d="m79.9 91.7h3.7v11.3h-3.7v-11.3z"/>
  <path class="cls-26" d="m25.5 97.1h2.9v24.8h-2.9v-24.8z"/>
  <path class="cls-30" d="m29.7 103.2h2.9v18.7h-2.9v-18.7z"/>
  <path class="cls-25" d="m39.5 110h2.9v12h-2.9v-12z"/>
  <path class="cls-25" d="m43.8 98.5h3.1v23.5h-3.1v-23.5z"/>
  <path class="cls-26" d="m93.7 86.9h3.7v16h-3.6l-0.1-16z"/>
  <path class="cls-24" d="m99.2 89.9h3.6v13.1h-3.6v-13.1z"/>
  <path class="cls-27" d="m104.6 93.7h3.9v9.3h-3.9v-9.3z"/>
  <path class="cls-27" d="m110.6 84.7h3.8v18.3h-3.8v-18.3z"/>
  <path class="cls-28" d="m116.5 91.6h3.6v11.4h-3.6v-11.4z"/>
  <path class="cls-34" d="m122.1 82.9h3.6v20h-3.6v-20z"/>
  <path class="cls-35" d="m11.1 137.5h174"/>
</svg>